# Blender 4.5.3 LTS
# www.blender.org
o Cube
v 1.000000 -0.310384 -1.000000
v 1.000000 -0.261446 -1.000000
v 1.000000 -0.310384 1.000000
v 1.000000 -0.261446 1.000000
v -1.000000 -0.310384 -1.000000
v -1.000000 -0.261446 -1.000000
v -1.000000 -0.310384 1.000000
v -1.000000 -0.261446 1.000000
v -1.000000 0.024469 0.000000
v 1.000000 -0.024469 0.000000
v -1.000000 -0.024469 0.000000
v 1.000000 0.024469 0.000000
v -1.000000 0.024469 0.500000
v 1.000000 -0.002840 0.500000
v -1.000000 -0.002840 0.500000
v 1.000000 0.024469 0.500000
v -1.000000 -0.002840 -0.500000
v 1.000000 0.024469 -0.500000
v -1.000000 0.024469 -0.500000
v 1.000000 -0.002840 -0.500000
v 0.000000 -0.261446 -1.000000
v 0.000000 -0.310384 1.000000
v 0.000000 -0.261446 1.000000
v 0.000000 -0.310384 -1.000000
v 0.000000 0.024469 0.000000
v 0.000000 -0.024469 0.000000
v 0.000000 0.024469 0.500000
v 0.000000 -0.002840 0.500000
v 0.000000 -0.002840 -0.500000
v 0.000000 0.024469 -0.500000
v -1.000000 -0.086928 0.750000
v 1.000000 -0.135866 0.750000
v -1.000000 -0.135866 0.750000
v 1.000000 -0.086928 0.750000
v 0.000000 -0.086928 0.750000
v 0.000000 -0.135866 0.750000
v -1.000000 -0.135866 -0.750000
v 1.000000 -0.086928 -0.750000
v -1.000000 -0.086928 -0.750000
v 1.000000 -0.135866 -0.750000
v 0.000000 -0.086928 -0.750000
v 0.000000 -0.135866 -0.750000
v -1.000000 -0.022306 -0.625000
v 1.000000 -0.049615 -0.625000
v 0.000000 -0.022306 -0.625000
v 0.000000 -0.049615 -0.625000
v -1.000000 -0.049615 -0.625000
v 1.000000 -0.022306 -0.625000
v -1.000000 -0.049615 0.625000
v 1.000000 -0.022306 0.625000
v -1.000000 -0.022306 0.625000
v 1.000000 -0.049615 0.625000
v 0.000000 -0.022306 0.625000
v 0.000000 -0.049615 0.625000
v -1.000000 -0.034052 0.647720
v 1.000000 -0.082990 0.647720
v 0.000000 -0.034052 0.647720
v 0.000000 -0.082990 0.647720
v -1.000000 -0.082990 0.647720
v 1.000000 -0.034052 0.647720
v -1.000000 -0.024469 0.475374
v 1.000000 0.024469 0.475374
v -1.000000 0.024469 0.475374
v 1.000000 -0.024469 0.475374
v 0.000000 -0.024469 0.475374
v 0.000000 0.024469 0.475374
v -1.000000 0.024469 -0.478222
v 1.000000 -0.024469 -0.478222
v -1.000000 -0.024469 -0.478222
v 1.000000 0.024469 -0.478222
v 0.000000 -0.024469 -0.478222
v 0.000000 0.024469 -0.478222
v -1.000000 -0.083177 -0.648082
v 1.000000 -0.034239 -0.648082
v -1.000000 -0.034239 -0.648082
v 1.000000 -0.083177 -0.648082
v 0.000000 -0.034239 -0.648082
v 0.000000 -0.083177 -0.648082
v 0.000000 -0.261446 -1.088537
v -1.000000 -0.261446 -1.088537
v 1.000000 -0.310384 -1.088537
v 1.000000 -0.261446 -1.088537
v -1.000000 -0.261446 1.088537
v -1.000000 -0.310384 1.088537
v 1.000000 -0.310384 1.088537
v 1.000000 -0.261446 1.088537
v -1.000000 -0.310384 -1.088537
v 0.000000 -0.310384 1.088537
v 0.000000 -0.261446 1.088537
v 0.000000 -0.310384 -1.088537
vn -0.0000 -0.8200 -0.5724
vn -0.0000 1.0000 -0.0000
vn -1.0000 -0.0000 -0.0000
vn -0.0000 0.8200 0.5724
vn 1.0000 -0.0000 -0.0000
vn -0.0000 -1.0000 -0.0000
vn -0.0000 -0.7514 0.6599
vn -0.0000 -0.9366 0.3505
vn -0.0000 0.9366 -0.3505
vn -0.0000 -0.8883 -0.4592
vn -0.0000 0.8883 0.4592
vn -0.0000 -0.8200 0.5724
vn -0.0000 0.8200 -0.5724
vn -0.0000 -0.5667 0.8239
vn -0.0000 0.8883 -0.4592
vn -0.0000 -0.9366 -0.3505
vn -0.0000 0.9366 0.3505
vn -0.0000 -0.5627 -0.8266
vn -0.0000 -0.7095 -0.7047
vn -0.0000 -0.8883 0.4592
vn -0.0000 -0.0000 1.0000
vn -0.0000 -0.0000 -1.0000
vt 0.750000 0.718750
vt 0.875000 0.718750
vt 0.875000 0.750000
vt 0.750000 0.750000
vt 0.250000 0.750000
vt 0.375000 0.750000
vt 0.375000 0.218750
vt 0.625000 0.218750
vt 0.625000 0.250000
vt 0.375000 0.250000
vt 0.250000 0.718750
vt 0.375000 0.718750
vt 0.625000 0.718750
vt 0.625000 0.750000
vt 0.250000 0.500000
vt 0.125000 0.500000
vt 0.375000 0.565222
vt 0.625000 0.565222
vt 0.625000 0.625000
vt 0.375000 0.625000
vt 0.250000 0.565222
vt 0.250000 0.625000
vt 0.375000 0.065578
vt 0.625000 0.065578
vt 0.625000 0.125000
vt 0.375000 0.125000
vt 0.750000 0.565222
vt 0.875000 0.565222
vt 0.875000 0.625000
vt 0.750000 0.625000
vt 0.375000 0.046875
vt 0.625000 0.046875
vt 0.625000 0.062500
vt 0.375000 0.062500
vt 0.375000 0.684422
vt 0.625000 0.684422
vt 0.625000 0.687500
vt 0.375000 0.687500
vt 0.250000 0.684422
vt 0.250000 0.687500
vt 0.750000 0.684422
vt 0.875000 0.684422
vt 0.875000 0.687500
vt 0.750000 0.687500
vt 0.750000 0.546875
vt 0.875000 0.546875
vt 0.875000 0.562500
vt 0.750000 0.562500
vt 0.250000 0.546875
vt 0.375000 0.546875
vt 0.375000 0.562500
vt 0.250000 0.562500
vt 0.625000 0.546875
vt 0.625000 0.562500
vt 0.375000 0.184778
vt 0.625000 0.184778
vt 0.625000 0.187500
vt 0.375000 0.187500
vt 0.125000 0.546875
vt 0.125000 0.562500
vt 0.125000 0.684422
vt 0.125000 0.687500
vt 0.125000 0.565222
vt 0.125000 0.625000
vt 0.125000 0.718750
vt 0.125000 0.750000
vt 0.625000 0.705965
vt 0.750000 0.705965
vt 0.125000 0.705965
vt 0.250000 0.705965
vt 0.375000 0.000000
vt 0.625000 0.000000
vt 0.625000 0.031250
vt 0.375000 0.031250
vt 0.375000 0.705965
vt 0.875000 0.705965
vt 0.625000 0.500000
vt 0.750000 0.500000
vt 0.750000 0.531250
vt 0.625000 0.531250
vt 0.250000 0.531250
vt 0.125000 0.531250
vt 0.375000 0.500000
vt 0.375000 0.531250
vt 0.875000 0.500000
vt 0.875000 0.531250
vt 0.375000 0.206010
vt 0.625000 0.206010
vt 0.625000 0.203125
vt 0.375000 0.203125
vt 0.625000 0.543990
vt 0.750000 0.543990
vt 0.125000 0.543990
vt 0.250000 0.543990
vt 0.375000 0.543990
vt 0.875000 0.543990
vt 0.875000 0.703125
vt 0.750000 0.703125
vt 0.375000 0.703125
vt 0.250000 0.703125
vt 0.625000 0.703125
vt 0.125000 0.703125
vt 0.375000 0.044035
vt 0.625000 0.044035
vt 0.375000 0.875000
vt 0.625000 0.875000
vt 0.625000 1.000000
vt 0.375000 1.000000
vt 0.375000 0.375000
vt 0.625000 0.375000
s 0
f 36/1/1 22/4/1 7/3/1 33/2/1
f 23/5/2 89/5/2 86/6/2 4/6/2
f 39/7/3 6/10/3 5/9/3 37/8/3
f 35/11/4 23/5/4 4/6/4 34/12/4
f 34/12/5 4/6/5 3/14/5 32/13/5
f 21/15/2 79/15/2 80/16/2 6/16/2
f 70/17/5 12/20/5 10/19/5 68/18/5
f 72/21/2 25/22/2 12/20/2 70/17/2
f 63/23/3 9/26/3 11/25/3 61/24/3
f 71/27/6 26/30/6 11/29/6 69/28/6
f 51/31/3 13/34/3 15/33/3 49/32/3
f 62/35/5 16/38/5 14/37/5 64/36/5
f 66/39/2 27/40/2 16/38/2 62/35/2
f 65/41/7 28/44/7 15/43/7 61/42/7
f 46/45/8 29/48/8 17/47/8 47/46/8
f 45/49/9 30/52/9 18/51/9 48/50/9
f 48/50/5 18/51/5 20/54/5 44/53/5
f 67/55/3 19/58/3 17/57/3 69/56/3
f 43/59/9 19/60/9 30/52/9 45/49/9
f 44/53/8 20/54/8 29/48/8 46/45/8
f 64/36/7 14/37/7 28/44/7 65/41/7
f 63/61/2 13/62/2 27/40/2 66/39/2
f 68/18/6 10/19/6 26/30/6 71/27/6
f 67/63/2 9/64/2 25/22/2 72/21/2
f 4/6/5 86/6/5 85/14/5 3/14/5
f 31/65/4 8/66/4 23/5/4 35/11/4
f 8/66/2 83/66/2 89/5/2 23/5/2
f 32/13/1 3/14/1 22/4/1 36/1/1
f 56/67/10 32/13/10 36/1/10 58/68/10
f 55/69/11 31/65/11 35/11/11 57/70/11
f 8/71/3 31/74/3 33/73/3 7/72/3
f 60/75/5 34/12/5 32/13/5 56/67/5
f 57/70/11 35/11/11 34/12/11 60/75/11
f 58/68/10 36/1/10 33/2/10 59/76/10
f 1/77/12 40/80/12 42/79/12 24/78/12
f 6/16/13 39/82/13 41/81/13 21/15/13
f 2/83/5 38/84/5 40/80/5 1/77/5
f 21/15/13 41/81/13 38/84/13 2/83/13
f 24/78/12 42/79/12 37/86/12 5/85/12
f 75/87/3 39/7/3 37/8/3 73/88/3
f 19/58/3 43/90/3 47/89/3 17/57/3
f 76/91/14 44/53/14 46/45/14 78/92/14
f 75/93/15 43/59/15 45/49/15 77/94/15
f 74/95/5 48/50/5 44/53/5 76/91/5
f 77/94/15 45/49/15 48/50/15 74/95/15
f 78/92/14 46/45/14 47/46/14 73/96/14
f 28/44/16 54/98/16 49/97/16 15/43/16
f 27/40/17 53/100/17 50/99/17 16/38/17
f 16/38/5 50/99/5 52/101/5 14/37/5
f 13/62/17 51/102/17 53/100/17 27/40/17
f 14/37/16 52/101/16 54/98/16 28/44/16
f 55/103/3 51/31/3 49/32/3 59/104/3
f 31/74/3 55/103/3 59/104/3 33/73/3
f 54/98/18 58/68/18 59/76/18 49/97/18
f 53/100/11 57/70/11 60/75/11 50/99/11
f 50/99/5 60/75/5 56/67/5 52/101/5
f 51/102/11 55/69/11 57/70/11 53/100/11
f 52/101/18 56/67/18 58/68/18 54/98/18
f 9/64/2 63/61/2 66/39/2 25/22/2
f 10/19/6 64/36/6 65/41/6 26/30/6
f 26/30/6 65/41/6 61/42/6 11/29/6
f 25/22/2 66/39/2 62/35/2 12/20/2
f 12/20/5 62/35/5 64/36/5 10/19/5
f 13/34/3 63/23/3 61/24/3 15/33/3
f 19/60/2 67/63/2 72/21/2 30/52/2
f 20/54/19 68/18/19 71/27/19 29/48/19
f 9/26/3 67/55/3 69/56/3 11/25/3
f 29/48/19 71/27/19 69/28/19 17/47/19
f 30/52/2 72/21/2 70/17/2 18/51/2
f 18/51/5 70/17/5 68/18/5 20/54/5
f 42/79/20 78/92/20 73/96/20 37/86/20
f 41/81/15 77/94/15 74/95/15 38/84/15
f 38/84/5 74/95/5 76/91/5 40/80/5
f 39/82/15 75/93/15 77/94/15 41/81/15
f 40/80/20 76/91/20 78/92/20 42/79/20
f 43/90/3 75/87/3 73/88/3 47/89/3
f 89/105/21 83/108/21 84/107/21 88/106/21
f 79/109/22 82/83/22 81/77/22 90/110/22
f 80/10/22 79/109/22 90/110/22 87/9/22
f 86/6/21 89/105/21 88/106/21 85/14/21
f 5/85/6 87/85/6 90/78/6 24/78/6
f 6/10/3 80/10/3 87/9/3 5/9/3
f 2/83/2 82/83/2 79/15/2 21/15/2
f 1/77/5 81/77/5 82/83/5 2/83/5
f 22/4/6 88/4/6 84/3/6 7/3/6
f 3/14/6 85/14/6 88/4/6 22/4/6
f 7/72/3 84/72/3 83/71/3 8/71/3
f 24/78/6 90/78/6 81/77/6 1/77/6
